<svg width="338" height="20" viewBox="0 0 338 20" fill="none" xmlns="http://www.w3.org/2000/svg">
<path fill-rule="evenodd" clip-rule="evenodd" d="M0.610407 0H3.96764C4.30476 0 4.57805 0.273288 4.57805 0.610407V11.2925C4.57805 11.6296 4.30476 11.9029 3.96764 11.9029H0.610407C0.273288 11.9029 0 11.6296 0 11.2925V0.610407C0 0.273288 0.273288 0 0.610407 0ZM21.059 7.32489H10.3769C10.0398 7.32489 9.7665 7.59817 9.7665 7.93529V11.2925C9.7665 11.6296 10.0398 11.9029 10.3769 11.9029H21.059C21.3961 11.9029 21.6694 11.6296 21.6694 11.2925V7.93529C21.6694 7.59817 21.3961 7.32489 21.059 7.32489ZM18.6174 14.6498H7.93531C7.59819 14.6498 7.32491 14.923 7.32491 15.2602V18.6174C7.32491 18.9545 7.59819 19.2278 7.93531 19.2278H18.6174C18.9545 19.2278 19.2278 18.9545 19.2278 18.6174V15.2602C19.2278 14.923 18.9545 14.6498 18.6174 14.6498ZM16.4277 0H7.93531C7.59819 0 7.32491 0.273288 7.32491 0.610407V3.96764C7.32491 4.30476 7.59819 4.57805 7.93531 4.57805H18.6174C18.9545 4.57805 19.2278 4.30476 19.2278 3.96764V2.80013C19.2278 2.37516 19.059 1.96761 18.7585 1.66712L17.5607 0.469308C17.2602 0.168815 16.8527 0 16.4277 0Z" fill="white"/>
<path fill-rule="evenodd" clip-rule="evenodd" d="M3.052 14.6497H3.96761C4.30473 14.6497 4.57802 14.923 4.57802 15.2602V16.1758C4.57802 16.5129 4.30473 16.7862 3.96761 16.7862H3.052C2.71489 16.7862 2.4416 16.5129 2.4416 16.1758V15.2602C2.4416 14.923 2.71489 14.6497 3.052 14.6497ZM1.52602 14.6498H0.610407C0.273288 14.6498 0 14.923 0 15.2602V16.1758C0 16.5129 0.273288 16.7862 0.610407 16.7862H1.52602C1.86314 16.7862 2.13642 16.5129 2.13642 16.1758V15.2602C2.13642 14.923 1.86314 14.6498 1.52602 14.6498ZM1.52602 17.0914H0.610407C0.273288 17.0914 0 17.3647 0 17.7018V18.6174C0 18.9545 0.273288 19.2278 0.610407 19.2278H1.52602C1.86314 19.2278 2.13642 18.9545 2.13642 18.6174V17.7018C2.13642 17.3647 1.86314 17.0914 1.52602 17.0914ZM3.96761 17.0914H3.052C2.71489 17.0914 2.4416 17.3647 2.4416 17.7018V18.6174C2.4416 18.9545 2.71489 19.2278 3.052 19.2278H3.96761C4.30473 19.2278 4.57802 18.9545 4.57802 18.6174V17.7018C4.57802 17.3647 4.30473 17.0914 3.96761 17.0914Z" fill="#38CA9F"/>
<path fill-rule="evenodd" clip-rule="evenodd" d="M291.889 12.9355C291.203 14.3353 290.114 15.241 288.693 15.7155C288.098 15.9139 287.493 16.0323 286.863 15.9922C285.123 15.9842 283.626 15.3609 282.499 13.9398C281.322 12.455 280.992 10.7083 281.241 8.82012C281.397 7.63548 281.837 6.58294 282.594 5.68677C283.535 4.57232 284.719 3.9187 286.121 3.75999C287.613 3.59121 289.017 3.87775 290.259 4.82797C291.192 5.54198 291.871 6.46476 292.225 7.61603C292.782 9.42767 292.73 11.2192 291.889 12.9355ZM295.995 5.69037C295.111 3.75499 293.781 2.25239 291.978 1.26744C290.206 0.299956 288.307 -0.117294 286.309 0.0283063L286.221 0.0330974C285.795 0.0562794 285.374 0.0792479 284.948 0.160872C283.532 0.432383 282.211 0.929643 280.996 1.75582C279.377 2.85684 278.236 4.37733 277.527 6.2442C276.973 7.70118 276.801 9.23151 276.907 10.8109C277.023 12.5523 277.528 14.1312 278.438 15.5769C279.116 16.6553 279.968 17.542 281.004 18.2348C282.259 19.074 283.607 19.6185 285.084 19.8515C286.634 20.0961 288.17 20.0441 289.68 19.654C291.272 19.2426 292.704 18.4532 293.925 17.2798C294.986 16.259 295.762 15.0263 296.277 13.6055C296.654 12.5635 296.843 11.4918 296.872 10.3763C296.916 8.73994 296.67 7.17008 295.995 5.69037ZM330.831 10.7921L327.914 13.8902L327.937 13.9181L327.937 13.9185L327.937 13.9189L327.938 13.9193L327.938 13.9197L327.938 13.9201L327.939 13.9206L327.939 13.921L327.94 13.9214L327.94 13.9218L327.94 13.9222L327.941 13.9226L327.941 13.923L327.941 13.9234L327.942 13.9238C329.348 15.6508 330.754 17.3778 332.155 19.1096C332.325 19.3201 332.499 19.3957 332.766 19.3935C333.685 19.3859 334.605 19.3861 335.525 19.3862C336.083 19.3864 336.641 19.3865 337.199 19.3849C337.209 19.3848 337.22 19.3852 337.23 19.3858C337.239 19.3864 337.249 19.3872 337.259 19.3881L337.321 19.3939C337.404 19.4005 337.491 19.397 337.574 19.315L337.313 18.9655L337.181 18.7944L336.67 18.1501L336.64 18.1119L336.622 18.089L336.611 18.0752L336.606 18.0691L336.602 18.0645L336.6 18.0615L336.574 18.0291L336.556 18.0066L336.545 17.9925L336.536 17.9815L336.529 17.9721L336.523 17.9641L336.519 17.9593L336.516 17.9559C334.126 14.9409 331.735 11.926 329.34 8.91534L330.831 10.7921ZM323.591 4.34632C323.591 3.0268 323.593 1.70728 323.6 0.387721C323.602 0.0719761 323.509 0.00874384 323.213 0.0125895C323.109 0.0139677 323.007 0.0152205 322.907 0.016351L322.322 0.0216936L321.761 0.0242582C321.669 0.0244628 321.577 0.0245581 321.485 0.0245473L320.648 0.021674L319.758 0.0135972C319.476 0.0105465 319.384 0.0812668 319.384 0.375935C319.392 6.59904 319.392 12.8221 319.384 19.0453C319.384 19.3234 319.466 19.3961 319.737 19.3933L320.049 19.3903L320.645 19.3857L321.217 19.3833C321.311 19.383 321.405 19.3829 321.499 19.3829L322.065 19.3841L322.194 19.3847L322.354 19.3857L322.95 19.391L323.261 19.3948C323.551 19.3987 323.6 19.3004 323.598 19.04L323.592 17.6456C323.592 17.4042 323.592 17.1629 323.592 16.9215V16.9107C323.592 16.226 323.593 15.5414 323.587 14.8568C323.585 14.5928 323.667 14.4012 323.849 14.2153C324.2 13.8565 324.548 13.4944 324.895 13.1313L324.896 13.1028L329.28 8.50352C329.296 8.4801 329.317 8.45558 329.341 8.42959L329.552 8.20421L337.172 0.0203919L333.65 0.0200986L332.319 0.0173412C332.17 0.0167894 332.091 0.100508 332.004 0.191622L332.003 0.193033L330.458 1.82431L329.942 2.3683L329.875 2.43801C327.904 4.51647 325.932 6.59485 323.959 8.67129C323.946 8.68458 323.933 8.69975 323.921 8.71583L323.863 8.79107C323.803 8.86593 323.738 8.9299 323.658 8.89495C323.585 8.8635 323.578 8.78658 323.584 8.70154L323.594 8.57255C323.594 8.56462 323.595 8.55678 323.595 8.54907C323.595 8.5364 323.594 8.52408 323.593 8.51223L323.59 8.44342L323.592 8.30493L323.591 4.34632ZM180.077 14.4209H178.017C177.258 14.4209 176.643 15.0358 176.643 15.7943V17.8544C176.643 18.6129 177.258 19.2278 178.017 19.2278H180.077C180.835 19.2278 181.45 18.6129 181.45 17.8544V15.7943C181.45 15.0358 180.835 14.4209 180.077 14.4209ZM102.117 15.5428C101.8 15.5467 101.689 15.4407 101.691 15.1263C101.699 13.7501 101.698 12.3739 101.697 10.9977C101.696 10.535 101.696 10.0723 101.696 9.60955C101.696 9.15065 101.696 8.69174 101.697 8.23284C101.698 6.86422 101.7 5.49564 101.688 4.12722C101.686 3.82019 101.783 3.73726 102.08 3.73698C102.546 3.7365 103.011 3.7273 103.477 3.7181C104.184 3.70413 104.89 3.69016 105.596 3.70669C107.656 3.75494 109.33 4.54788 110.429 6.32251C111.234 7.6222 111.439 9.04579 111.26 10.5392C111.128 11.639 110.763 12.6548 110.054 13.5192C108.897 14.9318 107.344 15.5294 105.531 15.5368C105.084 15.5386 104.637 15.5378 104.19 15.537H104.19C103.499 15.5358 102.808 15.5346 102.117 15.5428ZM97.9469 0.00254246C97.3336 0.00254246 97.2731 0.0613449 97.273 0.66993C97.2727 2.78778 97.2727 4.90556 97.2728 7.02332L97.2729 9.57843L97.2728 12.171L97.2729 17.3561L97.2728 17.6457C97.2726 18.0175 97.2724 18.3892 97.2766 18.7609C97.2798 19.0488 97.4116 19.195 97.7287 19.1887C98.7276 19.1689 99.727 19.18 100.726 19.191C102.79 19.2138 104.853 19.2366 106.912 18.9879C108.66 18.7768 110.339 18.4015 111.802 17.3798C112.971 16.5636 113.938 15.5667 114.63 14.3176C115.414 12.9041 115.777 11.3898 115.812 9.79171C115.841 8.43158 115.646 7.10037 115.124 5.8392C114.274 3.78714 112.845 2.22744 110.847 1.19559C109.155 0.322324 107.326 0.0111778 105.435 0.00459849C103.673 -0.00140031 101.911 -2.29358e-05 100.149 0.0013544C99.4152 0.00192828 98.6811 0.00250215 97.9469 0.00254246ZM300.142 0.0128463C300.844 0.0161534 301.528 0.0174465 302.202 0.0179006L304.875 0.0180284C305.986 0.0185387 307.106 0.0210713 308.275 0.0310669C309.92 0.0450723 311.5 0.375794 312.951 1.1967C314.865 2.28039 315.98 3.89877 316.239 6.08999C316.388 7.34507 316.28 8.57394 315.795 9.74845C315.218 11.1459 314.239 12.1777 312.909 12.8737L312.659 13.0007L312.591 13.0368L312.534 13.0698C312.398 13.1545 312.38 13.2174 312.458 13.3558L312.491 13.4115L312.534 13.4754L312.612 13.5891C313.178 14.3982 313.744 15.2068 314.31 16.0154C315.018 17.026 315.725 18.0366 316.432 19.0482L316.447 19.0688L316.484 19.1103L316.522 19.1524C316.572 19.2092 316.611 19.2691 316.575 19.3383C316.536 19.4106 316.456 19.4074 316.375 19.3973L316.314 19.3895C316.294 19.3872 316.275 19.3855 316.257 19.3855C315.782 19.3867 315.308 19.3864 314.834 19.3862C313.945 19.3858 313.057 19.3854 312.169 19.3937C312.12 19.3942 312.075 19.3916 312.034 19.3857L305.817 10.4039L307.392 10.4035C307.806 10.4021 308.221 10.393 308.634 10.334C310.497 10.0684 311.674 9.03501 311.728 7.19822C311.759 6.15808 311.517 5.21223 310.658 4.52C310.036 4.01775 309.301 3.80781 308.521 3.74485C307.808 3.68717 307.093 3.67874 306.378 3.68133L305.305 3.68867C304.947 3.69069 304.59 3.69067 304.232 3.68384C304.038 3.68023 303.979 3.73099 303.982 3.9358C303.988 4.45379 303.989 4.97185 303.99 5.48993L303.989 7.04416L303.992 8.28765C303.993 8.90936 303.992 9.53102 303.98 10.1525C303.979 10.2237 303.985 10.2753 303.999 10.3127L303.999 14.1195C303.986 14.1633 303.981 14.2204 303.982 14.2938L303.988 15.4694L303.989 17.8207C303.99 18.2126 303.992 18.6045 303.996 18.9963C303.999 19.3034 303.907 19.3913 303.627 19.395L302.987 19.3875L302.422 19.3829C302.33 19.3824 302.238 19.382 302.146 19.3818L301.599 19.3817C301.508 19.382 301.416 19.3823 301.324 19.3828L300.759 19.3874L300.162 19.3951C299.836 19.4001 299.733 19.3206 299.734 18.9804C299.741 17.436 299.743 15.8915 299.743 14.347L299.742 9.7135L299.743 5.06269C299.743 3.51245 299.741 1.96222 299.734 0.411986C299.733 0.0858405 299.83 0.0115149 300.142 0.0128463ZM163.305 3.75647C164.909 3.50336 166.406 3.92122 167.792 4.74044C168.115 4.93094 168.417 5.15686 168.743 5.40058L168.743 5.40081C168.899 5.51744 169.06 5.63815 169.232 5.761C169.245 5.74065 169.259 5.71772 169.273 5.69327C169.308 5.6355 169.347 5.56927 169.394 5.50869C169.721 5.08449 170.049 4.66104 170.377 4.23759L170.38 4.23454C170.672 3.85796 170.964 3.48138 171.255 3.10427C171.509 2.7761 171.499 2.73765 171.164 2.47495C169.742 1.36217 168.158 0.613753 166.397 0.235817C164.73 -0.121891 163.07 -0.06041 161.432 0.339217C159.808 0.735251 158.343 1.48633 157.1 2.64103C156.087 3.58294 155.315 4.70757 154.8 5.99428C154.242 7.38932 154.071 8.84929 154.179 10.3565C154.299 12.0194 154.783 13.5461 155.701 14.9226C157.426 17.5075 159.888 18.822 162.898 19.149C164.09 19.2783 165.274 19.1729 166.445 18.9117C168.146 18.532 169.734 17.8808 171.17 16.8732C171.273 16.8004 171.363 16.6241 171.364 16.4956C171.371 15.1901 171.371 13.8846 171.372 12.5791C171.373 11.6892 171.373 10.7994 171.375 9.90951C171.376 9.62326 171.269 9.51733 170.987 9.52066C170.365 9.52797 169.743 9.52692 169.121 9.52587L169.121 9.52587C168.814 9.52535 168.508 9.52483 168.202 9.52532C167.782 9.52585 167.766 9.54381 167.765 9.9839C167.765 10.3435 167.765 10.7031 167.765 11.0627C167.766 12.1112 167.766 13.1597 167.757 14.2081C167.756 14.3336 167.673 14.5227 167.574 14.5728C166.522 15.1052 165.432 15.4974 164.233 15.5211C163.144 15.5426 162.122 15.3073 161.205 14.7205C158.836 13.2035 157.814 10.4395 158.67 7.72254C159.388 5.44281 160.986 4.1223 163.305 3.75647ZM270.428 0.0138669C271.311 0.0254106 272.194 0.0238305 273.083 0.0222382C273.394 0.0216819 273.706 0.021124 274.018 0.021124C274.028 0.145925 273.994 0.25427 273.957 0.358281L273.92 0.461295C273.914 0.478373 273.909 0.495443 273.904 0.512561L268.346 19.1127C268.287 19.3121 268.215 19.3953 268.005 19.3932C266.708 19.3792 265.411 19.3792 264.114 19.3929C263.898 19.3952 263.806 19.3267 263.74 19.1052L262.578 15.1794L260.249 7.32973L258.239 0.0388751C258.289 0.020344 258.348 0.0134636 258.422 0.014468C259.497 0.0288894 260.573 0.0270867 261.649 0.016132C261.866 0.0138669 261.963 0.0656362 262.037 0.319259C263.008 3.63677 263.986 6.95139 264.966 10.2656L265.948 13.588L265.998 13.6811L266.312 12.6593L266.513 11.997L266.963 10.4984L266.965 10.4933L266.966 10.4881L266.968 10.4834L266.969 10.4795L266.97 10.476L266.971 10.4729L266.972 10.4695L266.973 10.4661L266.974 10.4631C267.988 7.0882 269.002 3.71327 270.008 0.335621C270.084 0.0803349 270.189 0.0110013 270.428 0.0138669ZM249.73 0.0148711C249.925 0.00987913 249.999 0.0905835 250.053 0.276398L251.347 4.69209L253.963 13.6077L254.574 11.6319L254.74 11.0895L255.035 10.1285C255.702 7.95392 256.369 5.77936 257.034 3.60419L258.801 10.0145L257.685 13.6458C257.124 15.4734 256.564 17.3011 256.004 19.129C255.948 19.3094 255.88 19.3947 255.681 19.3928C254.384 19.38 253.087 19.3821 251.79 19.3908C251.607 19.3921 251.516 19.3409 251.457 19.1425L249.572 12.856L245.798 0.284579C245.788 0.254571 245.781 0.224098 245.773 0.191268L245.734 0.0212498H247.768L248.749 0.0243525C249.076 0.0248552 249.403 0.0232605 249.73 0.0148711ZM41.2181 15.6086C39.7965 15.561 38.4526 15.1564 37.2113 14.4733C36.6223 14.1491 36.0571 13.7814 35.4785 13.405C35.216 13.2343 34.9508 13.0618 34.6793 12.8907C34.6975 12.8772 34.6596 12.8908 34.647 12.9169L34.4806 13.258L34.4805 13.2581L34.4805 13.2581C34.0274 14.1867 33.5742 15.1155 33.135 16.0507C33.0975 16.1307 33.1498 16.3235 33.2223 16.3739C33.342 16.4568 33.4613 16.5406 33.5807 16.6244C34.0757 16.972 34.5718 17.3203 35.0995 17.6093C36.5734 18.4166 38.1483 18.9182 39.8271 19.1156C41.5221 19.3148 43.1745 19.1923 44.7791 18.6104C45.935 18.1912 46.9109 17.5103 47.6206 16.4805C48.3575 15.4113 48.5534 14.2254 48.4667 12.9486C48.3473 11.1935 47.4581 9.92673 45.9622 9.15186C45.2073 8.76085 44.3974 8.47647 43.5876 8.19215L43.5876 8.19215C43.241 8.07046 42.8944 7.94878 42.5522 7.81875C42.2342 7.69789 41.9141 7.58186 41.5941 7.46584L41.5941 7.46584C40.9201 7.22155 40.2462 6.97729 39.5922 6.68794C38.9226 6.39168 38.5841 5.79437 38.6567 5.04222C38.7254 4.33181 39.198 3.96896 39.8503 3.79006C40.7952 3.53115 41.7304 3.6412 42.6612 3.85559C44.0134 4.16726 45.2878 4.68057 46.4866 5.38062C46.6778 5.49226 46.8072 5.52748 46.9228 5.27043C47.3573 4.30337 47.8065 3.34281 48.261 2.38505C48.3809 2.13252 48.3333 1.9899 48.0851 1.85167C46.6564 1.05566 45.1498 0.489326 43.5349 0.207951C41.7013 -0.111436 39.8843 -0.0969488 38.1076 0.496769C36.1944 1.13594 34.7537 2.30636 34.2992 4.36464C33.7645 6.78603 34.5726 8.85626 36.8838 9.94308C37.8216 10.3841 38.8215 10.6934 39.8209 11.0025L39.8209 11.0025L39.8209 11.0025L39.821 11.0025L39.821 11.0026L39.821 11.0026L39.821 11.0026L39.821 11.0026L39.821 11.0026C40.2256 11.1277 40.6301 11.2528 41.0304 11.3866C41.1259 11.4185 41.2215 11.4499 41.3172 11.4812C42.038 11.7171 42.7558 11.952 43.371 12.4337C44.3423 13.1941 44.2463 14.5973 43.172 15.2036C42.5624 15.5476 41.8874 15.6309 41.2181 15.6086ZM243.096 0.0120604C243.392 0.0106737 243.453 0.0962314 243.448 0.374259C243.431 1.3649 243.43 2.35623 243.448 3.34687C243.454 3.63183 243.358 3.6934 243.093 3.69201C242.312 3.68771 241.531 3.68784 240.749 3.68796C239.718 3.68813 238.687 3.6883 237.656 3.67828C237.317 3.67495 237.233 3.77188 237.234 4.1015C237.239 6.58918 237.24 9.07686 237.241 11.5646C237.242 14.0546 237.243 16.5447 237.248 19.0348C237.249 19.327 237.169 19.3973 236.886 19.394C235.628 19.379 234.369 19.3747 233.111 19.3964C232.79 19.4019 232.743 19.3014 232.744 19.0099C232.748 16.7683 232.749 14.5266 232.75 12.285V12.2648C232.751 9.54691 232.752 6.82906 232.759 4.1112C232.76 3.74762 232.656 3.67482 232.312 3.67814C231.353 3.6876 230.394 3.68738 229.435 3.68715C228.593 3.68696 227.751 3.68677 226.909 3.69312C226.603 3.69534 226.517 3.60895 226.523 3.30333C226.542 2.31283 226.542 1.32136 226.522 0.330718C226.517 0.0583753 226.605 0.0135858 226.853 0.0144178C228.982 0.0210582 231.112 0.02052 233.242 0.0199818L234.992 0.0196871C235.599 0.0196871 236.206 0.0199535 236.814 0.0202199C238.908 0.0211384 241.002 0.0220568 243.096 0.0120604ZM148.655 18.6784C148.654 19.199 148.654 19.1993 148.156 19.1994C147.878 19.1995 147.6 19.199 147.322 19.1986C146.583 19.1974 145.844 19.1962 145.105 19.2041C144.869 19.2065 144.709 19.1363 144.561 18.9437C141.459 14.9182 138.352 10.8969 135.244 6.87559L135.242 6.87216L135.24 6.87027L135.239 6.86837L135.237 6.86546L135.233 6.8605L135.224 6.84891C134.891 6.4182 134.557 5.98806 134.224 5.55791L134.223 5.55651L134.222 5.55563C133.379 4.46812 132.536 3.38059 131.704 2.284C131.56 2.09342 131.482 1.81865 131.458 1.57432C131.43 1.3016 131.436 1.0255 131.442 0.749324C131.445 0.624791 131.448 0.500244 131.447 0.375989C131.447 0.125354 131.553 -0.001061 131.815 0.00017298C132.193 0.00199653 132.571 0.00169932 132.948 0.00140211C133.678 0.000827798 134.407 0.000253491 135.137 0.0149808C135.282 0.01786 135.464 0.154421 135.56 0.282069C136.603 1.66333 137.637 3.05113 138.671 4.43885L138.671 4.4391L139.299 5.28093L140.279 6.59643C141.522 8.26386 142.764 9.93123 144.014 11.5937C144.073 11.6731 144.172 11.7225 144.271 11.7719C144.317 11.7949 144.363 11.8178 144.405 11.8438C144.423 11.7968 144.446 11.7499 144.469 11.703C144.519 11.6021 144.569 11.5013 144.569 11.4002C144.577 8.39821 144.577 5.39619 144.577 2.39416L144.577 0.571232C144.577 0.0206023 144.594 0.00264094 145.122 0.00264094L145.558 0.00251221C146.43 0.00224359 147.301 0.00197501 148.173 0.00291516C148.639 0.00332649 148.654 0.0175858 148.654 0.481289C148.655 2.76745 148.655 5.0536 148.655 7.33976L148.655 9.63126L148.655 12.647L148.655 18.6784ZM131.447 6.64417C131.447 6.61634 131.445 6.58739 131.442 6.55843C131.437 6.49319 131.431 6.42786 131.453 6.37505C131.463 6.35262 131.472 6.32866 131.482 6.304L131.483 6.30305C131.539 6.16152 131.605 5.99721 131.701 5.96729C131.819 5.93059 132.037 6.03838 132.129 6.15391C132.377 6.46342 132.607 6.78839 132.836 7.11333C132.922 7.23531 133.009 7.35728 133.096 7.47843C133.271 7.72161 133.446 7.96444 133.621 8.20727L133.624 8.21016L133.627 8.21446L133.627 8.21476L133.627 8.21498L133.627 8.21511L133.627 8.21525L133.627 8.21539L133.627 8.21553L133.628 8.21566C134.156 8.94737 134.684 9.67903 135.201 10.4198C135.318 10.5884 135.4 10.8268 135.401 11.0335C135.412 12.9454 135.411 15.3138 135.41 17.3939V17.396V17.398V17.4V17.4018V17.4036L135.409 18.7502C135.409 19.2194 135.402 19.2271 134.951 19.2274C133.938 19.2279 132.924 19.2279 131.911 19.2272C131.483 19.227 131.448 19.1937 131.448 18.7424C131.447 17.2993 131.447 15.4706 131.447 13.8345L131.447 12.2825V6.64417ZM208.855 7.5673L208.901 7.56642L218.208 7.56577L219.526 7.56558C220.568 7.56537 221.611 7.56515 222.654 7.56616L222.765 7.56743C222.782 7.56785 222.799 7.56839 222.816 7.56905L222.908 7.57466C223.242 7.60274 223.332 7.71106 223.349 8.05191L223.352 8.1462L223.353 8.19749C223.354 8.93213 223.354 9.6669 223.352 10.4015C223.351 10.8232 223.27 10.9578 222.913 10.9871L222.822 10.9922C222.806 10.9927 222.79 10.9931 222.773 10.9934L219.254 10.9945L211.694 10.9947L211.694 15.7955L222.801 15.7967L222.896 15.7993C223.267 15.8165 223.344 15.9179 223.351 16.3179L223.352 16.3674C223.353 16.8779 223.354 17.3884 223.353 17.8989L223.351 18.6647C223.349 19.1213 223.263 19.2179 222.82 19.2243L222.769 19.2247C218.656 19.2251 214.544 19.2251 210.431 19.2247L211.143 19.2231L210.243 19.2247L208.833 19.2245L208.733 19.2229L208.687 19.2208C208.346 19.2064 208.272 19.123 208.266 18.8044L208.265 17.2564L208.265 8.015L208.265 7.98281C208.265 7.96542 208.266 7.94875 208.267 7.93275L208.272 7.86096C208.293 7.66063 208.373 7.59246 208.612 7.57359L208.697 7.56901C208.713 7.56852 208.729 7.56814 208.745 7.56788L208.855 7.5673ZM210.243 19.2247L210.388 19.2248L210.431 19.2247L210.243 19.2247ZM212.331 0.0209541L222.751 0.0213155L222.852 0.0228364C223.262 0.036334 223.349 0.145318 223.351 0.571966C223.355 1.349 223.354 2.12616 223.351 2.9032L223.35 2.99431C223.338 3.32318 223.256 3.42208 222.939 3.44424L222.851 3.44838C222.835 3.44881 222.819 3.44912 222.802 3.44933L222.751 3.44964C218.116 3.4503 213.481 3.45043 208.847 3.4499L208.747 3.44861C208.405 3.43876 208.3 3.3681 208.274 3.09151L208.269 3.01087L208.267 2.91936C208.265 2.39406 208.264 1.86871 208.265 1.34334L208.268 0.555279C208.27 0.125525 208.362 0.0283223 208.797 0.0218096L212.331 0.0209541ZM91.7789 18.692C91.7789 19.1998 91.7782 19.1999 91.2654 19.2001C90.9869 19.2001 90.7083 19.1997 90.4297 19.1994C89.6912 19.1984 88.9527 19.1974 88.2143 19.204C87.9918 19.2061 87.8352 19.1461 87.6941 18.963C84.5917 14.9384 81.4847 10.9174 78.3776 6.89665L78.0667 6.49433C76.9886 5.09883 75.9105 3.70331 74.8251 2.31349C74.6479 2.0866 74.5486 1.85944 74.5633 1.56537C74.5823 1.18947 74.5745 0.811636 74.5661 0.434905C74.5594 0.139332 74.6644 -0.00310754 74.9814 0.000319786C75.4384 0.00533931 75.8955 0.00501625 76.3526 0.00469321C76.9692 0.00425749 77.5857 0.0038218 78.2019 0.0164968C78.3603 0.0196499 78.5661 0.138235 78.665 0.269022C79.9781 2.00745 81.281 3.75377 82.5839 5.50012L83.1627 6.27575C83.5112 6.74288 83.8596 7.2102 84.2079 7.67752L84.2081 7.67778C85.1779 8.97891 86.1477 10.28 87.1231 11.5769C87.1849 11.659 87.2802 11.7153 87.3756 11.7716C87.4202 11.7979 87.4647 11.8242 87.5059 11.8531C87.526 11.8038 87.5516 11.7544 87.5773 11.7051L87.5773 11.7051L87.5773 11.705L87.5774 11.7049L87.5774 11.7048L87.5774 11.7048C87.6325 11.5989 87.6876 11.493 87.6879 11.387C87.6965 8.38861 87.6961 5.39014 87.6958 2.39173L87.6956 0.592836C87.6956 0.0115614 87.7028 0.00484386 88.2902 0.00498095L89.2082 0.00487712C89.8967 0.0047603 90.5852 0.00464349 91.2737 0.00511804C91.7678 0.00552932 91.7787 0.0160855 91.7788 0.530459C91.7792 2.78202 91.7791 5.03365 91.7791 7.28525V7.34106L91.7791 9.61123L91.7791 11.8814C91.7791 14.1516 91.7791 16.4218 91.7789 18.692ZM74.5714 6.65251C74.5714 6.62186 74.569 6.59016 74.5667 6.55843C74.5612 6.48468 74.5557 6.41078 74.5798 6.3495L74.5905 6.32203C74.6453 6.18195 74.7154 6.00248 74.8179 5.96809C74.93 5.93046 75.1126 6.03576 75.2308 6.12585C75.3056 6.18277 75.3592 6.26954 75.4128 6.35639C75.4374 6.3962 75.462 6.43603 75.4887 6.47301C75.7099 6.77946 75.9313 7.08572 76.1527 7.39198C76.8861 8.40631 77.6194 9.42064 78.3438 10.4419C78.4509 10.5928 78.5255 10.8086 78.5266 10.9947C78.537 13.0568 78.5355 15.6401 78.5343 17.8359V17.8376L78.5338 18.7774C78.5336 19.2134 78.5177 19.2274 78.0818 19.2275C77.0677 19.2281 76.0537 19.2281 75.0396 19.2275C74.6101 19.2273 74.5724 19.1921 74.572 18.7475C74.5707 17.2933 74.5709 15.452 74.5711 13.8054L74.5712 12.2551L74.5714 6.65251ZM187.516 6.14645C187.578 6.19389 187.626 6.26205 187.671 6.33371L187.739 6.44169C187.75 6.45941 187.762 6.4768 187.774 6.49361L189.206 8.47498C189.682 9.13582 190.158 9.79768 190.629 10.4625C190.736 10.6134 190.811 10.8292 190.812 11.0153L190.816 12.1244L190.82 14.815L190.819 18.8851L190.817 18.9602L190.813 19.0241C190.798 19.1807 190.75 19.2279 190.593 19.2421L190.529 19.246L190.454 19.2477L188.846 19.2485L187.28 19.2479L187.2 19.2464C186.963 19.2382 186.888 19.1955 186.866 19.0012L186.861 18.9346L186.858 18.8572L186.857 18.7681L186.857 12.2758L186.857 6.67311L186.855 6.62884L186.849 6.53866C186.845 6.47869 186.845 6.42018 186.865 6.3701L186.911 6.25536C186.96 6.13659 187.021 6.01621 187.103 5.98869C187.215 5.95105 187.398 6.05636 187.516 6.14645ZM187.267 0.0209914L187.911 0.0251402L189.199 0.0254456C189.629 0.0259906 190.058 0.0284583 190.487 0.037287C190.646 0.0404402 190.851 0.159026 190.95 0.289812C191.704 1.28771 192.455 2.28822 193.204 3.28984L195.448 6.29655C195.797 6.76385 196.145 7.23135 196.494 7.69884L196.497 7.70401C197.466 9.00332 198.434 10.3026 199.408 11.5977C199.454 11.6579 199.517 11.7042 199.585 11.7469L199.741 11.8409C199.758 11.8516 199.775 11.8625 199.791 11.8739C199.805 11.8394 199.822 11.8048 199.84 11.7703L199.893 11.6667C199.936 11.5804 199.973 11.4942 199.973 11.4078C199.98 9.00911 199.981 6.61038 199.981 4.21167L199.982 0.467458L199.984 0.383199C199.993 0.134961 200.036 0.0590395 200.234 0.0358829L200.302 0.0301847L200.381 0.0271579L200.576 0.0257712L202.067 0.0255827L203.652 0.0262721L203.732 0.0277841L203.801 0.0313219C203.982 0.0450443 204.039 0.0937291 204.056 0.267206L204.061 0.333762L204.063 0.411558L204.064 0.551249L204.064 18.8479L204.062 18.925L204.058 18.9906C204.042 19.1612 203.987 19.2053 203.8 19.2168L203.728 19.2196L203.551 19.2209L201.517 19.2198C201.178 19.2204 200.839 19.2218 200.5 19.2249C200.277 19.2269 200.121 19.1668 199.979 18.9838C197.911 16.3007 195.841 13.6193 193.77 10.9384L190.663 6.91744L190.353 6.51609C189.274 5.12026 188.196 3.72442 187.11 2.33428C186.933 2.10739 186.834 1.88023 186.849 1.58616C186.868 1.21026 186.86 0.832427 186.851 0.455695C186.845 0.160122 186.95 0.0176827 187.267 0.0209914ZM121.314 0.497552L121.314 10.3011C121.314 10.6803 121.622 10.9878 122.001 10.9878H125.251C125.629 10.988 125.937 10.6825 125.938 10.3044L125.944 0.413248C125.944 0.0924832 125.811 -0.00264968 125.487 0.000105641L124.276 0.00590671L121.688 0.00550104L121.56 0.0120024C121.357 0.0315884 121.322 0.100961 121.316 0.345828L121.314 0.497552ZM125.504 19.2034C124.257 19.1877 123.009 19.186 121.762 19.2042C121.395 19.2094 121.307 19.0827 121.308 18.7625L121.314 15.1089C121.314 14.7567 121.579 14.4661 121.92 14.426L122 14.4212L125.253 14.4213C125.632 14.4218 125.939 14.7289 125.94 15.108L125.943 18.7812C125.943 19.0848 125.85 19.2077 125.504 19.2034ZM69.066 0.551194C69.064 0.0917279 68.9623 0.000675472 68.466 0.000544083C66.7848 6.63073e-05 65.1037 0.000144487 63.4225 0.000222669L61.5312 0.000281306L59.7887 0.000232035C58.0463 0.000158129 56.3038 8.42226e-05 54.5613 0.000675472C54.0836 0.000806861 53.9846 0.0888373 53.9824 0.534508C53.9783 1.32258 53.9789 2.11065 53.9821 2.89858C53.984 3.35201 54.0694 3.42913 54.5613 3.42913C59.1963 3.42966 63.8311 3.42953 68.466 3.42887C68.9757 3.42874 69.0646 3.34899 69.0663 2.88242C69.0689 2.10539 69.0693 1.32823 69.066 0.551194ZM57.4085 12.0336L57.4086 10.9739L60.1302 10.9738L61.5026 10.9737L63.5815 10.9737C65.1992 10.9738 66.8169 10.9738 68.4346 10.973C68.9568 10.9728 69.0658 10.8699 69.067 10.3808C69.0688 9.64611 69.0684 8.91135 69.0672 8.17671C69.0663 7.63206 68.9724 7.54589 68.369 7.54537C67.3264 7.54437 66.2839 7.54458 65.2414 7.5448H65.2402L63.9228 7.54498L61.8804 7.54487H61.871C59.9357 7.54475 58.0004 7.54463 56.0651 7.54481C55.803 7.54452 55.5409 7.54457 55.2788 7.5449L54.7151 7.54498C54.6646 7.54499 54.6175 7.5454 54.5737 7.54643L54.5102 7.54662C54.0568 7.54814 53.9796 7.61409 53.9796 7.99422L53.9795 8.95239C53.9794 9.20362 53.9793 9.45486 53.9794 9.7061C53.9792 12.1657 53.9793 14.6254 53.9796 17.085C53.9792 17.4041 53.9792 17.7232 53.9798 18.0423L53.9799 18.7387C53.98 19.0958 54.0456 19.1856 54.4054 19.2002C54.4485 19.2027 54.4959 19.2037 54.548 19.2037L55.1211 19.2038C55.4777 19.2043 55.8344 19.2044 56.191 19.2039C60.2887 19.2043 64.3862 19.2043 68.4839 19.2039C68.9717 19.2037 69.0635 19.1174 69.0657 18.6439C69.0693 17.8781 69.0686 17.1124 69.0663 16.3466C69.0646 15.8544 68.98 15.7757 68.4636 15.7756C66.9255 15.7752 65.3874 15.7752 63.8493 15.7752L61.5477 15.7752L59.9361 15.7751L57.4086 15.7749L57.4086 14.8415L57.4085 13.38L57.4085 12.0336Z" fill="white"/>
</svg>
